<?xml version="1.0" encoding="utf-8"?>
<!-- Generator: Adobe Illustrator 18.1.1, SVG Export Plug-In . SVG Version: 6.00 Build 0)  -->
<svg version="1.1" id="Layer_1" xmlns="http://www.w3.org/2000/svg" xmlns:xlink="http://www.w3.org/1999/xlink" x="0px" y="0px"
	 viewBox="0 0 50 50" enable-background="new 0 0 50 50" xml:space="preserve">
<ellipse fill="#EEC58D" cx="8.9" cy="38.8" rx="6.3" ry="2.9"/>
<ellipse fill="#EEC58D" cx="40.9" cy="38.8" rx="6.3" ry="2.9"/>
<path fill="#EEC58D" d="M19,15.4c1.4-2.5,0.6-5.2-1.6-6.4s-4.9-0.4-6.3,2.1s-1.5,6,1,7.4S17.6,17.9,19,15.4z"/>
<path fill="#EEC58D" d="M14.3,26.8c0.4-2.8-1.3-5.1-3.8-5.4c-2.5-0.4-4.7,1.4-5.1,4.2C5,28.3,6,31.7,9,32.1S13.9,29.6,14.3,26.8z"/>
<path fill="#EEC58D" d="M35.4,27.9c0.4,2.8,2.6,4.6,5.1,4.2c2.5-0.3,4.2-2.6,3.8-5.4C43.9,24,42,21,39.1,21.4
	C36.1,21.8,35,25.1,35.4,27.9z"/>
<path fill="#EEC58D" d="M25.8,10.8c2.7-0.9,3.9-3.5,3.1-5.9c-0.8-2.3-3.4-3.6-6.1-2.6s-5.1,3.5-4.2,6.3
	C19.6,11.4,23.1,11.8,25.8,10.8z"/>
<path fill="#EEC58D" d="M29.9,14.2c1.2,2.6,3.9,3.5,6.1,2.5s3.2-3.8,2-6.3s-4-4.8-6.6-3.5S28.7,11.7,29.9,14.2z"/>
<g>
</g>
<g>
</g>
<g>
</g>
<g>
</g>
<g>
</g>
<g>
</g>
<g>
</g>
<g>
</g>
<g>
</g>
<g>
</g>
<g>
</g>
<g>
</g>
<g>
</g>
<g>
</g>
<g>
</g>
</svg>
