<?xml version="1.0" encoding="utf-8"?>
<!-- Generator: Adobe Illustrator 18.1.1, SVG Export Plug-In . SVG Version: 6.00 Build 0)  -->
<svg version="1.1" id="Layer_1" xmlns="http://www.w3.org/2000/svg" xmlns:xlink="http://www.w3.org/1999/xlink" x="0px" y="0px"
	 viewBox="0 0 50 50" enable-background="new 0 0 50 50" xml:space="preserve">
<g>
	<path fill="#EEC58D" d="M44.7,21.1l-9.3-1.2c-0.7-1.3-1.6-2.5-2.7-3.6l1-9.7c-1-0.5-2-0.9-3.1-1.2C29.4,5,28.2,4.7,27,4.6l-4.5,8.7
		c-1.4,0.2-2.8,0.7-4,1.4L10,10.6c-1.6,1.6-3,3.6-4,5.8l6.4,7.2c-0.2,1.4-0.2,2.8,0.1,4.1l-6.1,6.6c1.1,2.1,2.5,4,4.3,5.7l8.4-3.7
		c0.6,0.3,1.2,0.5,1.8,0.7c0.6,0.2,1.2,0.3,1.8,0.4l4.9,7.8c2.4-0.4,4.6-1.1,6.7-2.3l-1.3-8.9c1-1,1.8-2.1,2.4-3.4l9.3-2.4
		C45.2,25.7,45.1,23.4,44.7,21.1z M29.4,26.8c-0.8,2.7-3.7,4.3-6.4,3.4c-2.7-0.8-4.3-3.7-3.4-6.4c0.8-2.7,3.7-4.3,6.4-3.4
		C28.7,21.2,30.3,24,29.4,26.8z"/>
</g>
<g>
</g>
<g>
</g>
<g>
</g>
<g>
</g>
<g>
</g>
<g>
</g>
<g>
</g>
<g>
</g>
<g>
</g>
<g>
</g>
<g>
</g>
<g>
</g>
<g>
</g>
<g>
</g>
<g>
</g>
</svg>
