<?xml version="1.0" encoding="utf-8"?>
<!-- Generator: Adobe Illustrator 18.1.1, SVG Export Plug-In . SVG Version: 6.00 Build 0)  -->
<svg version="1.1" id="Layer_1" xmlns="http://www.w3.org/2000/svg" xmlns:xlink="http://www.w3.org/1999/xlink" x="0px" y="0px"
	 viewBox="0 0 50 50" enable-background="new 0 0 50 50" xml:space="preserve">
<g>
	<path fill="#EEC58D" d="M41.1,25l2-2.9L40.3,20l1-3.4L38,15.4l-0.1-3.5l-3.5-0.1l-1.2-3.3l-3.4,1l-2.1-2.8l-2.9,2l-2.9-2l-2.1,2.8
		l-3.4-1l-1.2,3.3l-3.5,0.1l-0.1,3.5l-3.3,1.2l1,3.4l-2.8,2.1l2,2.9l-2,2.9L9.4,30l-1,3.4l3.3,1.2l0.1,3.5l3.5,0.1l1.2,3.3l3.4-1
		l2.1,2.8l2.9-2l2.9,2l2.1-2.8l3.4,1l1.2-3.3l3.5-0.1l0.1-3.5l3.3-1.2l-1-3.4l2.8-2.1L41.1,25z M24.6,17.2c1.1,0,2,0.9,2,2
		s-0.9,2-2,2s-2-0.9-2-2S23.5,17.2,24.6,17.2z M17.3,30.7c-1.1,0-2-0.9-2-2s0.9-2,2-2c1.1,0,2,0.9,2,2S18.4,30.7,17.3,30.7z
		 M18.1,23.2c-1.3,0-2.3-1.2-2-2.6c0.2-0.7,0.8-1.3,1.5-1.5c1.3-0.3,2.5,0.7,2.5,2C20.1,22.3,19.2,23.2,18.1,23.2z M23.6,35.9
		c-1.1,0-2-0.9-2-2s0.9-2,2-2s2,0.9,2,2S24.7,35.9,23.6,35.9z M27.7,25.5c-1.1,0-2-0.9-2-2s0.9-2,2-2s2,0.9,2,2S28.9,25.5,27.7,25.5
		z M35.1,33.8c-1.1,0-2-0.9-2-2s0.9-2,2-2s2,0.9,2,2S36.2,33.8,35.1,33.8z"/>
</g>
<g>
</g>
<g>
</g>
<g>
</g>
<g>
</g>
<g>
</g>
<g>
</g>
<g>
</g>
<g>
</g>
<g>
</g>
<g>
</g>
<g>
</g>
<g>
</g>
<g>
</g>
<g>
</g>
<g>
</g>
</svg>
