<?xml version="1.0" encoding="utf-8"?>
<!-- Generator: Adobe Illustrator 18.1.1, SVG Export Plug-In . SVG Version: 6.00 Build 0)  -->
<svg version="1.1" id="Layer_1" xmlns="http://www.w3.org/2000/svg" xmlns:xlink="http://www.w3.org/1999/xlink" x="0px" y="0px"
	 viewBox="0 0 50 50" enable-background="new 0 0 50 50" xml:space="preserve">
<g>
	<path fill="#EEC58D" d="M42.1,42.2L30.7,28.1c0.2-0.4,0.4-0.8,0.5-1.2L49.5,25L31.1,23c-0.1-0.4-0.3-0.8-0.5-1.1L42.8,7.6
		L28.1,19.3c-0.3-0.2-0.6-0.3-1-0.4L25.9,0.4l-2.6,18.4c-0.4,0.1-0.8,0.3-1.1,0.4L8.3,6.9l11.2,14.8c-0.2,0.3-0.4,0.7-0.5,1
		L0.4,23.9l18.4,2.7c0.1,0.4,0.3,0.8,0.4,1.2L7.5,41.4l14.2-10.8c0.4,0.2,0.8,0.4,1.3,0.6l1.8,18.4l2-18.3c0.4-0.1,0.8-0.3,1.2-0.5
		L42.1,42.2z"/>
</g>
<g>
</g>
<g>
</g>
<g>
</g>
<g>
</g>
<g>
</g>
<g>
</g>
<g>
</g>
<g>
</g>
<g>
</g>
<g>
</g>
<g>
</g>
<g>
</g>
<g>
</g>
<g>
</g>
<g>
</g>
</svg>
